<svg xmlns="http://www.w3.org/2000/svg" width="64" height="64" viewBox="0 0 64 64"><style>.st0{fill:#fff}.st1{fill:#1a73e8}.st2{fill:#ea4335}.st3{fill:#4285f4}.st4{fill:#fbbc04}.st5{fill:#34a853}</style><path class="st0" d="M3 3h58v58H3z"/><path class="st1" d="M36.8 10.1c-1.5-.5-3.1-.8-4.8-.8-4.9 0-9.3 2.2-12.3 5.7l7.6 6.4 9.5-11.3z"/><path class="st2" d="M19.7 15.1c-2.3 2.8-3.8 6.4-3.8 10.3 0 3 .6 5.5 1.6 7.6l9.7-11.6-7.5-6.3z"/><path class="st3" d="M32 19.2c3.4 0 6.1 2.7 6.1 6.1 0 1.5-.5 2.9-1.5 4 0 0 4.8-5.8 9.5-11.3-1.9-3.7-5.3-6.6-9.4-7.9l-9.5 11.3c1.2-1.3 2.9-2.2 4.8-2.2"/><path class="st4" d="M32 31.5c-3.4 0-6.1-2.7-6.1-6.1 0-1.5.5-2.9 1.4-3.9L17.6 33c1.7 3.7 4.4 6.7 7.3 10.4l11.8-14.1c-1.1 1.3-2.8 2.2-4.7 2.2"/><path class="st5" d="M36.4 47.2C41.8 38.9 48 35.1 48 25.4c0-2.7-.7-5.2-1.8-7.4L24.9 43.4c.9 1.2 1.8 2.5 2.7 3.8 3.2 5 2.4 8 4.4 8 2.1.1 1.2-3 4.4-8"/></svg>
